<svg xmlns="http://www.w3.org/2000/svg" viewBox="0 0 115.59 70.17"><defs><style>.cls-1{fill:#0287d0;}</style></defs><title>Asset 1</title><g id="Layer_2" data-name="Layer 2"><g id="logolar"><path class="cls-1" d="M11.82,48.39a6.18,6.18,0,0,1,3.69,2.12.79.79,0,0,0,.51.28c1.15,0,2.31,0,3.47,0a1.68,1.68,0,0,0,.32-.05c-.23-.43-.41-.82-.64-1.2A10.15,10.15,0,0,0,8.76,44.9c-4.45.78-7.21,3.47-8.45,7.8A17.07,17.07,0,0,0,0,54.51v1.16c0,.14.08.25.1.38a9.19,9.19,0,0,0,1.3,4.18,10.48,10.48,0,0,0,11,5.13,9.5,9.5,0,0,0,7.27-5.26c.06-.13.11-.27.19-.46h-3.7a1.23,1.23,0,0,0-1,.39A6.26,6.26,0,0,1,8.9,61.81,6.85,6.85,0,0,1,4,53.45C5,49.41,8.16,47.8,11.82,48.39Z"/><path class="cls-1" d="M54.77,18.33c2.14,0,4.23,0,6.3,0,.08,0,.23-.16.26-.27.1-.45.15-.91.25-1.35a13.17,13.17,0,1,1,10.82,16,12.91,12.91,0,0,1-8.59-5.18l-.21-.25c-1.76,1.24-3.52,2.47-5.3,3.7A19.67,19.67,0,1,0,67.84,1.13a19.23,19.23,0,0,0-10.92,9.49A19,19,0,0,0,54.77,18.33Z"/><path class="cls-1" d="M45.79,39A19.42,19.42,0,0,0,61.13,21.16H54.65a13.07,13.07,0,0,1-4.22,8.32,12.79,12.79,0,0,1-8.7,3.45A13.19,13.19,0,0,1,34.64,8.5a12.71,12.71,0,0,1,8.45-1.86,13.14,13.14,0,0,1,9.23,5.49l5.31-3.72A19.67,19.67,0,1,0,45.79,39Z"/><path class="cls-1" d="M61.78,54.79a5,5,0,0,0-3.15-4.49,8,8,0,0,0-1.94-.45,6,6,0,0,0-5.41,2,1.46,1.46,0,0,0-.2.37A5.07,5.07,0,0,0,47,49.8a4.85,4.85,0,0,0-4.29,1.71s-.08,0-.08-.06c0-.31,0-.61,0-.92s-.1-.4-.39-.4q-1.24,0-2.49,0c-.26,0-.36.08-.36.36v14.3c0,.27.1.36.36.36.89,0,1.8,0,2.68,0,.38,0,.5-.09.5-.48,0-2.14,0-4.29,0-6.43,0-.87.05-1.74.14-2.6a2.57,2.57,0,0,1,1.86-2.47,4.61,4.61,0,0,1,1.48-.11,2.38,2.38,0,0,1,2.29,2A11.11,11.11,0,0,1,48.84,57c0,2.56,0,5.15,0,7.73,0,.29.07.43.4.43.92,0,1.86,0,2.79,0,.33,0,.4-.12.4-.42,0-2.13,0-4.25,0-6.39,0-.74,0-1.5.08-2.24.16-1.76,1-3.17,3.24-3.06a2.46,2.46,0,0,1,2.38,1.88,8.12,8.12,0,0,1,.23,1.91q0,3.95,0,7.89c0,.36.1.44.45.44.85,0,1.72,0,2.6,0,.37,0,.49-.1.49-.47,0-2.6,0-5.18,0-7.78A16.63,16.63,0,0,0,61.78,54.79Z"/><path class="cls-1" d="M78.86,52a6.91,6.91,0,0,0-4.72-2.15,6.42,6.42,0,0,0-5.32,1.84,2.42,2.42,0,0,1-.3.25c0-.5,0-.92,0-1.33s-.08-.41-.39-.41H65.68c-.37,0-.45.09-.45.44q0,9.57,0,19.14c0,.13,0,.28,0,.41h3.57V63.81l.27.18a6.74,6.74,0,0,0,5.34,1.49A7.1,7.1,0,0,0,80.34,61,8,8,0,0,0,81,57.15,7.68,7.68,0,0,0,78.86,52ZM74.5,62.1a4.47,4.47,0,0,1-5.74-3.63,4.83,4.83,0,0,1,1-3.78,4.12,4.12,0,0,1,4.5-1.5,4.21,4.21,0,0,1,3.21,3.42,3.62,3.62,0,0,1,.06.46,5.8,5.8,0,0,1,0,.59A4.48,4.48,0,0,1,74.5,62.1Z"/><path class="cls-1" d="M89.33,49.85a7.83,7.83,0,0,0-6,10.9,7.56,7.56,0,0,0,6.45,4.66,7.63,7.63,0,0,0,7-2.57A6,6,0,0,0,98,60.74c-1.29,0-2.52,0-3.75,0a.4.4,0,0,0-.28.18c-1.52,1.76-4.56,1.62-6.15.34a3.47,3.47,0,0,1-1.24-2.09,4.53,4.53,0,0,1,.55,0h6.79c1.31,0,2.65,0,4,0,.28,0,.41,0,.44-.38a8.72,8.72,0,0,0-.15-3A7.52,7.52,0,0,0,89.33,49.85Zm-2.87,6.22a3.7,3.7,0,0,1,2-2.58,5.34,5.34,0,0,1,4.54,0,3.44,3.44,0,0,1,1.85,2.55C92.05,56.09,89.27,56.09,86.46,56.07Z"/><path class="cls-1" d="M29.23,49.8a7.88,7.88,0,1,0,.15,15.76c4.29,0,8.07-3.72,7.93-7.81A7.84,7.84,0,0,0,29.23,49.8Zm3.29,11.05A4.25,4.25,0,0,1,29,62.27a4.32,4.32,0,0,1-4-4.08,4.62,4.62,0,0,1,2.64-4.8A4.44,4.44,0,0,1,33.7,57,4.76,4.76,0,0,1,32.52,60.85Z"/><path class="cls-1" d="M115.17,60.26c-1.06,0-2.11,0-3.16,0a.66.66,0,0,0-.61.31,4.15,4.15,0,0,1-5.79.91A4.71,4.71,0,0,1,104,56.1a4,4,0,0,1,3.42-3,3.87,3.87,0,0,1,4.13,1.82.56.56,0,0,0,.41.18c1.12,0,2.22,0,3.32,0l.33,0a7.72,7.72,0,0,0-8.71-5.2,7.83,7.83,0,0,0-6.7,7.19,7.93,7.93,0,0,0,6.66,8.37,7.68,7.68,0,0,0,8.78-5.15Z"/></g></g></svg>