<?xml version="1.0" standalone="no"?>
<!DOCTYPE svg PUBLIC "-//W3C//DTD SVG 20010904//EN"
 "http://www.w3.org/TR/2001/REC-SVG-20010904/DTD/svg10.dtd">
<svg version="1.0" xmlns="http://www.w3.org/2000/svg"
 width="512.000000pt" height="512.000000pt" viewBox="0 0 512.000000 512.000000"
 preserveAspectRatio="xMidYMid meet">
<metadata>
Created by potrace 1.11, written by Peter Selinger 2001-2013
</metadata>
<g transform="translate(0.000000,512.000000) scale(0.100000,-0.100000)"
fill="#000000" stroke="none">
<path d="M1230 4625 c-400 -67 -722 -272 -937 -595 -114 -171 -184 -356 -218
-580 -8 -50 -9 -293 -1 -327 2 -11 8 -43 12 -70 5 -26 9 -50 9 -53 1 -3 5 -18
9 -35 48 -188 157 -414 255 -525 12 -14 39 -44 59 -68 93 -109 275 -241 435
-317 562 -266 1266 -91 1641 407 150 200 265 493 262 668 l-1 53 -208 -1
c-115 0 -211 -3 -215 -6 -3 -4 -7 -12 -8 -19 -9 -54 -15 -79 -24 -101 -5 -15
-8 -26 -5 -26 17 0 -75 -198 -124 -265 -230 -320 -569 -450 -970 -370 -82 16
-225 79 -308 136 -57 39 -167 147 -209 204 -129 177 -187 363 -179 580 4 115
4 117 30 218 43 171 170 360 318 474 106 82 284 164 384 178 21 3 49 8 62 11
64 14 234 3 336 -22 179 -45 295 -112 438 -256 48 -48 92 -88 98 -88 5 0 36
19 69 43 32 23 106 75 164 115 58 41 106 78 106 84 0 36 -209 248 -321 324
-164 113 -328 180 -552 225 -79 16 -321 18 -407 4z"/>
<path d="M3495 4625 c-449 -69 -818 -335 -1019 -733 -79 -157 -128 -330 -130
-457 l-1 -50 204 0 c124 0 209 4 217 10 7 5 16 26 19 45 55 335 302 617 630
720 97 30 141 35 285 35 95 -1 145 -6 210 -23 107 -27 266 -107 350 -175 139
-113 252 -283 306 -462 24 -81 27 -106 28 -245 0 -133 -3 -166 -22 -235 -90
-314 -301 -538 -604 -641 -191 -65 -443 -54 -639 26 -109 45 -228 130 -316
225 l-78 84 -172 -120 c-95 -66 -173 -124 -173 -129 0 -16 116 -154 171 -204
140 -127 328 -239 495 -295 67 -22 80 -25 194 -48 114 -23 377 -23 480 1 14 3
38 8 53 10 135 22 369 133 519 246 287 216 482 553 525 908 14 110 6 382 -11
410 -2 4 -7 25 -10 46 -22 136 -138 391 -238 521 -211 276 -498 454 -838 521
-106 21 -328 25 -435 9z"/>
<path d="M390 1716 c-104 -36 -171 -86 -226 -172 -122 -190 -96 -413 67 -571
193 -188 530 -154 670 66 16 24 26 47 24 51 -3 5 -42 7 -87 6 -81 -2 -84 -3
-138 -44 -112 -86 -271 -71 -374 36 -60 61 -80 115 -81 207 0 69 4 88 29 135
56 110 133 159 248 161 87 1 138 -15 199 -63 49 -38 58 -41 118 -43 91 -3 94
0 72 43 -31 59 -110 130 -189 170 -68 33 -82 36 -170 38 -79 2 -109 -1 -162
-20z"/>
<path d="M1275 1515 c-134 -34 -233 -136 -263 -271 -30 -134 51 -292 185 -359
51 -27 68 -30 148 -30 76 0 99 4 146 26 67 32 139 102 170 167 58 119 23 290
-77 384 -76 71 -213 108 -309 83z m179 -162 c120 -83 111 -280 -16 -345 -78
-41 -163 -30 -221 28 -73 73 -81 183 -21 274 53 80 175 101 258 43z"/>
<path d="M2065 1519 c-52 -8 -85 -22 -113 -49 l-22 -21 -6 29 c-6 28 -7 29
-67 28 l-62 -1 -3 -317 c-1 -175 1 -318 5 -319 47 -5 126 -2 133 6 4 6 8 91 8
190 0 195 5 237 28 273 34 52 140 66 186 25 39 -35 42 -53 44 -271 2 -118 5
-216 8 -219 5 -5 68 -7 128 -4 16 1 17 18 18 192 0 185 7 247 33 280 44 56
138 62 188 12 36 -35 40 -65 41 -305 0 -121 4 -178 12 -181 10 -3 88 -2 123 2
17 2 11 451 -7 501 -20 54 -47 88 -93 114 -104 60 -240 48 -320 -28 -33 -31
-42 -32 -59 -7 -33 48 -132 82 -203 70z"/>
<path d="M3193 1515 c-49 -11 -93 -33 -121 -62 -17 -17 -35 -6 -29 18 3 10 0
22 -7 27 -16 14 -114 14 -122 0 -8 -13 -9 -836 -1 -844 8 -8 122 -8 135 0 7 4
11 45 10 109 0 56 1 114 1 129 l1 27 66 -35 c55 -28 76 -34 129 -34 80 0 164
30 216 77 39 35 87 109 94 143 2 11 7 25 10 30 13 21 5 158 -11 206 -53 157
-210 246 -371 209z m101 -136 c87 -24 136 -93 136 -191 0 -68 -18 -113 -62
-154 -83 -78 -212 -63 -285 32 -37 49 -44 153 -14 212 46 90 129 128 225 101z"/>
<path d="M3919 1513 c-159 -41 -258 -165 -260 -327 -2 -151 103 -286 254 -326
72 -19 181 -9 242 23 76 40 145 110 145 148 0 17 -7 19 -72 18 -59 -1 -79 -6
-103 -24 -102 -78 -264 -38 -299 73 l-7 22 250 0 251 0 6 24 c10 43 -5 134
-32 192 -67 143 -222 216 -375 177z m185 -149 c39 -20 84 -84 72 -102 -3 -5
-85 -9 -182 -10 l-176 -1 7 27 c23 94 175 141 279 86z"/>
<path d="M4676 1513 c-128 -29 -220 -118 -252 -244 -40 -155 38 -318 186 -388
47 -22 68 -26 150 -26 106 0 154 17 221 77 40 36 95 124 82 131 -4 2 -40 5
-79 5 -64 2 -73 -1 -95 -24 -88 -94 -244 -72 -306 43 -19 35 -25 120 -12 168
36 130 209 175 307 79 24 -23 45 -34 66 -35 132 -4 135 -2 100 59 -74 127
-220 189 -368 155z"/>
</g>
</svg>
