<?xml version="1.0" encoding="utf-8"?>
<!-- Generator: Adobe Illustrator 23.0.6, SVG Export Plug-In . SVG Version: 6.00 Build 0)  -->
<svg version="1.1" id="Layer_1" xmlns="http://www.w3.org/2000/svg" xmlns:xlink="http://www.w3.org/1999/xlink" x="0px" y="0px"
	 viewBox="0 0 115.6 70.2" style="enable-background:new 0 0 115.6 70.2;" xml:space="preserve">
<style type="text/css">
	.st0{fill:#1A5EAA;}
</style>
<title>Asset 1</title>
<g>
	<g id="logolar">
		<path class="st0" d="M11.8,48.4c1.4,0.2,2.7,1,3.7,2.1c0.1,0.2,0.3,0.3,0.5,0.3c1.1,0,2.3,0,3.5,0c0.1,0,0.2,0,0.3,0
			c-0.2-0.4-0.4-0.8-0.6-1.2C17,46,12.9,44.2,8.8,44.9c-4.4,0.8-7.2,3.5-8.4,7.8c-0.1,0.6-0.2,1.2-0.3,1.8v1.2
			c0,0.1,0.1,0.3,0.1,0.4c0.1,1.5,0.5,2.9,1.3,4.2c2.2,3.9,6.6,5.9,11,5.1c3.2-0.4,5.9-2.4,7.3-5.3c0.1-0.1,0.1-0.3,0.2-0.5h-3.7
			c-0.4,0-0.7,0.1-1,0.4c-1.6,1.7-4,2.4-6.3,1.8c-3.7-1-5.9-4.7-4.9-8.4c0,0,0,0,0,0C5,49.4,8.2,47.8,11.8,48.4z"/>
		<path class="st0" d="M54.8,18.3c2.1,0,4.2,0,6.3,0c0.1,0,0.2-0.2,0.3-0.3c0.1-0.5,0.2-0.9,0.3-1.4c1.6-7.1,8.7-11.5,15.8-9.8
			s11.5,8.7,9.8,15.8c-1.6,6.7-8,11.1-14.8,10c-3.4-0.5-6.5-2.4-8.6-5.2l-0.2-0.3c-1.8,1.2-3.5,2.5-5.3,3.7
			c6.2,8.9,18.5,11,27.4,4.8s11-18.5,4.8-27.4C85.4,1.1,76.2-1.8,67.8,1.1c-4.7,1.6-8.7,5-10.9,9.5C55.7,13,54.9,15.6,54.8,18.3z"/>
		<path class="st0" d="M45.8,39c8.5-1.8,14.8-9.1,15.3-17.8h-6.5c-0.3,3.2-1.8,6.2-4.2,8.3c-2.4,2.2-5.5,3.4-8.7,3.5
			c-7.3,0.1-13.3-5.7-13.4-13c-0.1-4.7,2.3-9,6.3-11.4c2.5-1.6,5.5-2.2,8.5-1.9c3.7,0.4,7.1,2.4,9.2,5.5l5.3-3.7
			c-6.3-8.9-18.6-11-27.4-4.7s-11,18.6-4.7,27.4C30.1,37.6,38.1,40.7,45.8,39z"/>
		<path class="st0" d="M61.8,54.8c-0.1-2-1.3-3.8-3.2-4.5c-0.6-0.2-1.3-0.4-1.9-0.5c-2-0.3-4.1,0.5-5.4,2c-0.1,0.1-0.2,0.2-0.2,0.4
			c-0.9-1.4-2.4-2.3-4.1-2.4c-1.6-0.2-3.2,0.5-4.3,1.7c0,0-0.1,0-0.1-0.1c0-0.3,0-0.6,0-0.9s-0.1-0.4-0.4-0.4c-0.8,0-1.7,0-2.5,0
			c-0.3,0-0.4,0.1-0.4,0.4v14.3c0,0.3,0.1,0.4,0.4,0.4c0.9,0,1.8,0,2.7,0c0.4,0,0.5-0.1,0.5-0.5c0-2.1,0-4.3,0-6.4
			c0-0.9,0-1.7,0.1-2.6c0-1.1,0.8-2.2,1.9-2.5c0.5-0.1,1-0.2,1.5-0.1c1.1,0,2.1,0.9,2.3,2c0.1,0.6,0.2,1.3,0.1,1.9
			c0,2.6,0,5.2,0,7.7c0,0.3,0.1,0.4,0.4,0.4c0.9,0,1.9,0,2.8,0c0.3,0,0.4-0.1,0.4-0.4c0-2.1,0-4.3,0-6.4c0-0.7,0-1.5,0.1-2.2
			c0.2-1.8,1-3.2,3.2-3.1c1.1,0,2.1,0.8,2.4,1.9c0.2,0.6,0.2,1.3,0.2,1.9c0,2.6,0,5.3,0,7.9c0,0.4,0.1,0.4,0.5,0.4
			c0.8,0,1.7,0,2.6,0c0.4,0,0.5-0.1,0.5-0.5c0-2.6,0-5.2,0-7.8C61.9,56.2,61.9,55.5,61.8,54.8z"/>
		<path class="st0" d="M78.9,52c-1.2-1.3-2.9-2.1-4.7-2.2c-2-0.2-3.9,0.4-5.3,1.8c-0.1,0.1-0.2,0.2-0.3,0.3c0-0.5,0-0.9,0-1.3
			s-0.1-0.4-0.4-0.4h-2.4c-0.4,0-0.4,0.1-0.4,0.4c0,6.4,0,12.8,0,19.1c0,0.1,0,0.3,0,0.4h3.6v-6.4l0.3,0.2c1.5,1.2,3.4,1.8,5.3,1.5
			c2.7-0.3,5-2,5.9-4.5c0.5-1.2,0.8-2.5,0.7-3.8C81,55.2,80.2,53.4,78.9,52z M74.5,62.1c-2.4,0.7-4.9-0.6-5.6-3
			c-0.1-0.2-0.1-0.4-0.2-0.7c-0.2-1.3,0.1-2.7,1-3.8c1-1.4,2.8-2,4.5-1.5c1.7,0.4,2.9,1.7,3.2,3.4c0,0.2,0,0.3,0.1,0.5
			c0,0.2,0,0.4,0,0.6C77.6,59.6,76.4,61.5,74.5,62.1z"/>
		<path class="st0" d="M89.3,49.8c-4.3,0.6-7.2,4.6-6.6,8.9c0.1,0.7,0.3,1.4,0.6,2c1.1,2.7,3.6,4.5,6.4,4.7c2.6,0.4,5.3-0.6,7-2.6
			c0.5-0.6,1-1.3,1.2-2.1c-1.3,0-2.5,0-3.8,0c-0.1,0-0.2,0.1-0.3,0.2c-1.5,1.8-4.6,1.6-6.2,0.3c-0.7-0.5-1.1-1.3-1.2-2.1
			c0.2,0,0.4,0,0.6,0h6.8c1.3,0,2.7,0,4,0c0.3,0,0.4,0,0.4-0.4c0.1-1,0.1-2-0.2-3C97.4,51.7,93.5,49,89.3,49.8
			C89.4,49.8,89.4,49.8,89.3,49.8z M86.5,56.1c0.2-1.1,1-2.1,2-2.6c1.4-0.7,3.1-0.7,4.5,0c1,0.5,1.7,1.5,1.8,2.5
			C92.1,56.1,89.3,56.1,86.5,56.1z"/>
		<path class="st0" d="M29.2,49.8c-4.4,0-7.8,3.6-7.8,8c0,4.4,3.6,7.8,8,7.8c4.3,0,8.1-3.7,7.9-7.8c0.1-4.3-3.4-7.9-7.7-8
			C29.5,49.8,29.3,49.8,29.2,49.8z M32.5,60.8c-0.9,1-2.2,1.5-3.5,1.4c-2.2-0.2-3.9-1.9-4-4.1c-0.3-2,0.8-4,2.6-4.8
			c2.3-0.9,4.9,0.2,5.8,2.5c0.1,0.4,0.2,0.7,0.3,1.1C33.9,58.4,33.5,59.8,32.5,60.8z"/>
		<path class="st0" d="M115.2,60.3c-1.1,0-2.1,0-3.2,0c-0.2,0-0.5,0.1-0.6,0.3c-1.3,1.8-3.9,2.3-5.8,0.9c-1.7-1.2-2.3-3.4-1.6-5.4
			c0.4-1.6,1.8-2.8,3.4-3c1.6-0.3,3.3,0.4,4.1,1.8c0.1,0.1,0.3,0.2,0.4,0.2c1.1,0,2.2,0,3.3,0h0.3c-1.2-3.7-4.9-5.9-8.7-5.2
			c-3.6,0.5-6.4,3.5-6.7,7.2c-0.3,4.1,2.6,7.7,6.7,8.4c3.8,0.7,7.6-1.5,8.8-5.2L115.2,60.3z"/>
	</g>
</g>
</svg>
