<?xml version="1.0" encoding="UTF-8"?> <svg xmlns="http://www.w3.org/2000/svg" id="Layer_1" data-name="Layer 1" viewBox="0 0 256 76.66"><defs><style>.cls-1{fill:#fff;}</style></defs><title>Untitled-1</title><path class="cls-1" d="M95.58,115.43a27,27,0,0,1-2.17,10.5,26,26,0,0,1-17.28,14.88,26.38,26.38,0,0,1-3.85.72,24.92,24.92,0,0,1-4.65.07,25.45,25.45,0,0,1-6.22-1.26A25.75,25.75,0,0,1,52.22,135a24.13,24.13,0,0,1-3.4-3.74c-.09-.13-.18-.27-.26-.41a.19.19,0,0,1,0-.23,1.69,1.69,0,0,1,.25-.2l6-4.17.13-.09a.34.34,0,0,1,.5.09c.16.19.3.39.46.58a18.26,18.26,0,0,0,3.7,3.43A16.75,16.75,0,0,0,66.2,133a18.68,18.68,0,0,0,3.5.32,17,17,0,0,0,8.93-2.49,17.33,17.33,0,0,0,7.9-10.32,18,18,0,0,0,.63-5.74A17.61,17.61,0,0,0,73.44,98.47a17.67,17.67,0,0,0-15.1,3.63,16.85,16.85,0,0,0-6,9.87c0,.21-.07.43-.11.64a7.13,7.13,0,0,1-.18.8.45.45,0,0,1-.36.3l-.41,0h-7c-.42,0-.63,0-.57-.62a24.83,24.83,0,0,1,2.22-8.24A26.38,26.38,0,0,1,53.4,95.3a25.74,25.74,0,0,1,5.89-3.48,26.6,26.6,0,0,1,7.15-1.94,23.19,23.19,0,0,1,5.46-.09,27.21,27.21,0,0,1,5.51,1.12A25.41,25.41,0,0,1,86.47,96a26.19,26.19,0,0,1,8.39,13.81,21.8,21.8,0,0,1,.61,3.95C95.51,114.39,95.6,115,95.58,115.43Z" transform="translate(0 -89.67)"></path><path class="cls-1" d="M26,141.72A25.73,25.73,0,0,1,9.79,136,25.63,25.63,0,0,1,.6,121a21.32,21.32,0,0,1-.49-3.47L0,116.19a13.91,13.91,0,0,1,.06-2c.06-.65.1-1.3.2-2a25.47,25.47,0,0,1,3.83-10.42A25.88,25.88,0,0,1,20.56,90.3a24.4,24.4,0,0,1,6.49-.6,25.45,25.45,0,0,1,5.55.86,25.93,25.93,0,0,1,10.27,5.37,24.39,24.39,0,0,1,3.93,4.25,2.43,2.43,0,0,1,.2.35.17.17,0,0,1,0,.15,1.64,1.64,0,0,1-.25.21l-6,4.17-.28.16a.26.26,0,0,1-.3,0c-.12-.14-.24-.29-.37-.43-.43-.49-.85-1-1.31-1.46a16.86,16.86,0,0,0-7-4.36,19.43,19.43,0,0,0-4-.8,17.1,17.1,0,0,0-4.23.1,15.78,15.78,0,0,0-4.15,1.19,17.68,17.68,0,0,0-8.18,7,17,17,0,0,0-2.32,6.15,18,18,0,0,0-.18,4.8A17.57,17.57,0,0,0,21.72,132.8a17.68,17.68,0,0,0,5.52.47A17,17,0,0,0,38,128.64a17.2,17.2,0,0,0,4.4-6.41,18.06,18.06,0,0,0,1-3.38c.06-.32.11-.64.17-1a.32.32,0,0,1,.23-.21l.33,0h7.27a1.12,1.12,0,0,1,.32,0,.23.23,0,0,1,.15.17,8.25,8.25,0,0,1,0,1.22,25.89,25.89,0,0,1-19.09,21.74,26.5,26.5,0,0,1-4.25.78C27.59,141.68,26.77,141.69,26,141.72Z" transform="translate(0 -89.67)"></path><path class="cls-1" d="M33.16,156v-5.06c0-.25,0-.49,0-.74a.34.34,0,0,1,.33-.3h1.88l.08,0a.29.29,0,0,1,.22.21c0,.24,0,.49.07.73,0,.06.14.12.19.08l.37-.31a4,4,0,0,1,3.33-1,5.62,5.62,0,0,1,.57.09,4,4,0,0,1,2,1.18l.48.55a.16.16,0,0,0,.22,0c.13-.14.25-.29.38-.42a4.75,4.75,0,0,1,3.46-1.42,6.25,6.25,0,0,1,1.77.24,3.91,3.91,0,0,1,2.84,2.68,5.67,5.67,0,0,1,.28,1.36c0,.43,0,.87.05,1.3,0,.25,0,.49,0,.74,0,1.71,0,3.43,0,5.14q0,.33,0,.66c0,.34-.15.47-.52.48H49.34c-.27,0-.36-.15-.37-.35s0-.49,0-.74v-5.22a13.3,13.3,0,0,0-.1-1.55,4.52,4.52,0,0,0-.12-.64,2,2,0,0,0-1.65-1.51,3,3,0,0,0-1.53.08,2.1,2.1,0,0,0-1.23,1,3.2,3.2,0,0,0-.38,1.24c0,.38-.06.76-.06,1.14q0,2.2-.06,4.41c0,.47,0,.93,0,1.39a4,4,0,0,1,0,.49c0,.08-.13.2-.22.22l-.24,0a10.69,10.69,0,0,0-1.79,0,.93.93,0,0,1-.32,0,.26.26,0,0,1-.2-.23c0-.24,0-.49,0-.73v-5.39c0-.33,0-.66,0-1a6.16,6.16,0,0,0-.14-1.05,1.91,1.91,0,0,0-1.66-1.57,3.39,3.39,0,0,0-1.7.11,1.87,1.87,0,0,0-1.17,1.06,3.12,3.12,0,0,0-.25.94,23.83,23.83,0,0,0-.14,2.53v5a.37.37,0,0,1-.35.38h-.24a8.88,8.88,0,0,0-1.63,0,1.12,1.12,0,0,1-.32,0,.29.29,0,0,1-.22-.22c0-.24,0-.49,0-.73Z" transform="translate(0 -89.67)"></path><path class="cls-1" d="M15.12,150.25H13.89a.87.87,0,0,1-.65-.29c-.13-.14-.26-.27-.4-.4a5,5,0,0,0-3.24-1.38,11,11,0,0,0-1.15,0,5,5,0,0,0-4.11,2.44,6.32,6.32,0,0,0-.92,4.22,5.29,5.29,0,0,0,1.41,3,5.61,5.61,0,0,0,5.33,1.8,5,5,0,0,0,2.39-1.18c.15-.12.28-.26.42-.39a1.17,1.17,0,0,1,.66-.29l.16,0h2.54c.2,0,.27.14.17.33a7.54,7.54,0,0,1-3.6,3.54,8.77,8.77,0,0,1-3.63.84,8.35,8.35,0,0,1-6.81-3.12,7.89,7.89,0,0,1-1.72-3.21,8,8,0,0,1-.12-4,9.85,9.85,0,0,1,1.65-3.53,7.63,7.63,0,0,1,3.11-2.45,8.88,8.88,0,0,1,4.46-.76,8.18,8.18,0,0,1,4.91,2.18,7.8,7.8,0,0,1,1.68,2.19,1.18,1.18,0,0,1,.08.31.16.16,0,0,1-.09.12.64.64,0,0,1-.24,0H15.12Z" transform="translate(0 -89.67)"></path><path class="cls-1" d="M94.62,153.85H93.56a.8.8,0,0,1-.7-.35,3.24,3.24,0,0,0-3-1.38,4.28,4.28,0,0,0-1.12.22,3.09,3.09,0,0,0-1.59,1.21,3.92,3.92,0,0,0-.59,1.34,4.64,4.64,0,0,0,.1,2.66A3.66,3.66,0,0,0,90,159.94a3.38,3.38,0,0,0,2.74-1.2l.11-.12a.79.79,0,0,1,.7-.33l2.37,0a.19.19,0,0,1,.16.22s0,.06,0,.08A6.1,6.1,0,0,1,91,162.43a6.54,6.54,0,0,1-7.35-5.54,6.45,6.45,0,0,1,5.1-7.18A6.51,6.51,0,0,1,94,150.83a5.84,5.84,0,0,1,2,2.52,2,2,0,0,1,.07.23c0,.1,0,.24-.15.24l-1.31.05Z" transform="translate(0 -89.67)"></path><path class="cls-1" d="M67.51,154.92a6.21,6.21,0,0,0-.84-2.45,5.77,5.77,0,0,0-3.7-2.75,6.45,6.45,0,0,0-2.59-.08,5,5,0,0,0-2.54,1.23c-.12.11-.23.22-.36.32a.25.25,0,0,1-.15,0c-.07,0-.1,0-.1-.11,0-.33,0-.65,0-1a.32.32,0,0,0-.28-.25l-.33,0H55a.38.38,0,0,0-.4.42c0,.21,0,.43,0,.65,0,1.17,0,2.34,0,3.51s0,2.45,0,3.67v.66c0,2.2,0,4.4,0,6.61,0,.24,0,.49,0,.73a.27.27,0,0,0,.21.22h2.36a.25.25,0,0,0,.22-.2c0-.22,0-.44,0-.65,0-1.23,0-2.45,0-3.68,0-.19,0-.38,0-.57s.14-.13.19-.09l.54.35a5.33,5.33,0,0,0,2,.88,6,6,0,0,0,2.11,0,5.6,5.6,0,0,0,3.42-1.74,6.89,6.89,0,0,0,1.52-2.58,7.82,7.82,0,0,0,.21-1A7.65,7.65,0,0,0,67.51,154.92Zm-3.29,3.23a4.36,4.36,0,0,1-.48.65,3.14,3.14,0,0,1-2,1.08,3.79,3.79,0,0,1-3.55-1.19,3.33,3.33,0,0,1-.91-2,4.77,4.77,0,0,1,.17-2,4,4,0,0,1,1.31-1.83,3.27,3.27,0,0,1,2-.7,4.68,4.68,0,0,1,1.44.19A3.32,3.32,0,0,1,64.29,154a4.87,4.87,0,0,1-.07,4.15Z" transform="translate(0 -89.67)"></path><path class="cls-1" d="M81.13,152.86a6,6,0,0,0-5.45-3.29,6.38,6.38,0,0,0-5,2.13,6.12,6.12,0,0,0-1.6,3.33,6.53,6.53,0,0,0,.94,4.46A5.88,5.88,0,0,0,73,162a8,8,0,0,0,3.93.43l.24,0a6.24,6.24,0,0,0,3.54-2.21,3.85,3.85,0,0,0,.7-1.19.19.19,0,0,0-.15-.24H79a1,1,0,0,0-.74.28,3,3,0,0,1-1.31.8,4.34,4.34,0,0,1-1.86.15,4.24,4.24,0,0,1-1.54-.51,2.85,2.85,0,0,1-1.37-1.76c-.06-.25,0-.38.25-.39H81.1a2.76,2.76,0,0,0,.57-.06c.06,0,.12-.09.17-.15a.29.29,0,0,0,0-.16A6.86,6.86,0,0,0,81.13,152.86Zm-2.21,1.9-.57,0H72.72c-.17,0-.33,0-.49,0a.2.2,0,0,1-.14-.18,3,3,0,0,1,1.44-2,3.9,3.9,0,0,1,1.31-.44,4.71,4.71,0,0,1,2.72.34,2.73,2.73,0,0,1,1.55,2A.23.23,0,0,1,78.92,154.76Z" transform="translate(0 -89.67)"></path><path class="cls-1" d="M31.21,156.13a6.3,6.3,0,0,0-.13-1.3,6.23,6.23,0,0,0-4.38-4.92,6.11,6.11,0,0,0-3.54-.16,6.62,6.62,0,0,0-4.61,4,5.67,5.67,0,0,0-.14,4.15,6.44,6.44,0,0,0,2.11,3,6.2,6.2,0,0,0,6,1.23A6.7,6.7,0,0,0,30,159.77,5.76,5.76,0,0,0,31.21,156.13ZM27.12,159l-.25.21a3.9,3.9,0,0,1-2.94.67,3.3,3.3,0,0,1-2.36-1.59,4.46,4.46,0,0,1-.23-4.13,3.52,3.52,0,0,1,3.26-2.07,3.77,3.77,0,0,1,3.8,3.68A4,4,0,0,1,27.12,159Z" transform="translate(0 -89.67)"></path><path class="cls-1" d="M103.36,107.38V96.94h2.44a4.53,4.53,0,0,1,2.64.61,2.44,2.44,0,0,1,.93,2.1,2.26,2.26,0,0,1-1.16,2.16,2.52,2.52,0,0,1,1.73,2.15,2.77,2.77,0,0,1,0,.42,2.87,2.87,0,0,1-.89,2.25l-.29.2a6.29,6.29,0,0,1-2.85.55Zm1-5.95h1.27a4.72,4.72,0,0,0,1.84-.27,1.47,1.47,0,0,0,.8-1.49,1.69,1.69,0,0,0-.51-1.35l-.09-.07a4,4,0,0,0-2-.36H104.4Zm0,5h1.43a5.08,5.08,0,0,0,2.26-.38,1.56,1.56,0,0,0,.79-1.24,2.31,2.31,0,0,0,0-.37,1.79,1.79,0,0,0-1-1.76,5.85,5.85,0,0,0-2.29-.3H104.4Z" transform="translate(0 -89.67)"></path><path class="cls-1" d="M116.62,96.76a5.33,5.33,0,0,1,3.74,1.45l.47.47a5.25,5.25,0,0,1,1.3,3.49,5.16,5.16,0,0,1-1.46,3.63,5.33,5.33,0,0,1-3.5,1.73l-.55,0a5.38,5.38,0,0,1-3.8-1.48,5.23,5.23,0,0,1-1.71-3.57c0-.14,0-.27,0-.41a5,5,0,0,1,1.45-3.56A5.37,5.37,0,0,1,116,96.79,6.08,6.08,0,0,1,116.62,96.76Zm0,1A4.31,4.31,0,0,0,113.51,99a4.64,4.64,0,0,0-1.36,3.13,4.46,4.46,0,0,0,4.47,4.48,4.31,4.31,0,0,0,3.11-1.28,4.52,4.52,0,0,0,1.34-3.14,4.35,4.35,0,0,0-1.3-3.14l-.47-.4A4.25,4.25,0,0,0,116.62,97.72Z" transform="translate(0 -89.67)"></path><path class="cls-1" d="M127.4,102.56h7.09a5.46,5.46,0,0,1-1.37,3.24,5.2,5.2,0,0,1-4.07,1.76,5.63,5.63,0,0,1-4-1.5,5.08,5.08,0,0,1-1.71-3.6c0-.11,0-.22,0-.32a5.12,5.12,0,0,1,1.51-3.73,5.34,5.34,0,0,1,3.73-1.64h.3a5.54,5.54,0,0,1,3.7,1.27,4.15,4.15,0,0,1,1.24,1.69h-1.17a3.84,3.84,0,0,0-2.67-1.9,4.9,4.9,0,0,0-1-.1A4.45,4.45,0,0,0,125.7,99a4.28,4.28,0,0,0-1.27,3.13,4.22,4.22,0,0,0,1.34,3.16A4.5,4.5,0,0,0,129,106.6a4.23,4.23,0,0,0,3.12-1.24,3.87,3.87,0,0,0,1.1-1.85H127.4Zm-.64-8.25h.9A.91.91,0,0,0,128,95a1.81,1.81,0,0,0,.88.23,1.77,1.77,0,0,0,.87-.23.91.91,0,0,0,.37-.65h.9a2,2,0,0,1-.56,1.19l-.13.1a2.44,2.44,0,0,1-1.45.41,1.9,1.9,0,0,1-2.09-1.46Q126.79,94.45,126.76,94.31Z" transform="translate(0 -89.67)"></path><path class="cls-1" d="M135.22,107.38l4.48-10.44h1.17l4.49,10.44h-1.14l-1.51-3.52h-4.86l-1.53,3.52Zm3-4.46h4.06l-2-4.79Z" transform="translate(0 -89.67)"></path><path class="cls-1" d="M145.76,107.38v-.95l5.12-8.54h-5v-1h6.15v1l-5.12,8.54h5.27v.95Z" transform="translate(0 -89.67)"></path><path class="cls-1" d="M153.37,94.23h1V96h-1Zm0,13.15V96.94h1v10.44Z" transform="translate(0 -89.67)"></path><path class="cls-1" d="M161.55,107.56l-.34.78a1.42,1.42,0,0,1,.48-.1,1,1,0,0,1,1,.66,1.51,1.51,0,0,1,.1.53,1.23,1.23,0,0,1-.69,1.2,1.37,1.37,0,0,1-.61.14,1.29,1.29,0,0,1-1.32-1l.67-.1a.61.61,0,0,0,.63.48.56.56,0,0,0,.63-.5s0-.1,0-.15a.62.62,0,0,0-.42-.64l-.23,0a.85.85,0,0,0-.62.31l-.43-.26.6-1.28a5.75,5.75,0,0,1-2.33-.78l-.2-.13a5,5,0,0,1-2.33-3.84,6.08,6.08,0,0,1,0-.61,5.27,5.27,0,0,1,5.41-5.43,5.2,5.2,0,0,1,3.74,1.41,4.43,4.43,0,0,1,1.06,1.48h-1.17a4.19,4.19,0,0,0-1.1-1.2l0,0a4.3,4.3,0,0,0-2.45-.7,4.19,4.19,0,0,0-3.19,1.34,4.47,4.47,0,0,0,3.21,7.54,4.05,4.05,0,0,0,2.58-.86,7.13,7.13,0,0,0,1.05-1.1h1.15a5,5,0,0,1-4.22,2.89Z" transform="translate(0 -89.67)"></path><path class="cls-1" d="M168.05,94.23h1V96h-1Zm0,13.15V96.94h1v10.44Z" transform="translate(0 -89.67)"></path><path class="cls-1" d="M175.15,96.94h1v6.51a4,4,0,0,0,.48,2.16,2.16,2.16,0,0,0,1.66,1,2.31,2.31,0,0,0,.37,0,2.35,2.35,0,0,0,1.84-.76,2.31,2.31,0,0,0,.18-.23,4,4,0,0,0,.48-2.16V96.94h1v6.51a4.82,4.82,0,0,1-.63,2.69l-.1.14a3.29,3.29,0,0,1-2.4,1.25,3,3,0,0,1-.43,0,3.48,3.48,0,0,1-2.57-1l-.24-.28a4.29,4.29,0,0,1-.73-2.52V96.94Zm2-2.71h1.05V96h-1.05Zm2.08,0h1V96h-1Z" transform="translate(0 -89.67)"></path><path class="cls-1" d="M184.4,107.38V96.94h1.41l5.85,8.66V96.94h1.05v10.44h-1.05l-6.21-9.18v9.18Z" transform="translate(0 -89.67)"></path><path class="cls-1" d="M194.85,94.23h1.05V96h-1.05Zm0,13.15V96.94h1.05v10.44Z" transform="translate(0 -89.67)"></path><path class="cls-1" d="M201.41,107.38l-4.3-10.44h1.15l3.67,9.14,3.69-9.14h1.13l-4.33,10.44Z" transform="translate(0 -89.67)"></path><path class="cls-1" d="M208,107.38V96.94h5.71v1H209v3.74h4.5v1H209v3.85h4.66v.95Z" transform="translate(0 -89.67)"></path><path class="cls-1" d="M219.53,103.48l2.92,3.9h-1.3l-3.51-4.73a10,10,0,0,0,2.33-.19,2.33,2.33,0,0,0,.48-4.19,5.76,5.76,0,0,0-2.4-.38h-1.47v9.49h-1.05V96.94h2.59a6.36,6.36,0,0,1,2.92.51,3,3,0,0,1,1.57,2.85,2.81,2.81,0,0,1-2.08,3A4.77,4.77,0,0,1,219.53,103.48Z" transform="translate(0 -89.67)"></path><path class="cls-1" d="M223.34,104.45h1.12a2.71,2.71,0,0,0,.49,1.38,2.4,2.4,0,0,0,1.68.77,1.91,1.91,0,0,0,1.71-.87,2.07,2.07,0,0,0,.36-1.2A1.72,1.72,0,0,0,228,103a5.9,5.9,0,0,0-1.61-.69,6.36,6.36,0,0,1-1.73-.72l-.22-.2a2.42,2.42,0,0,1-.74-1.85,2.66,2.66,0,0,1,1.09-2.25,2.93,2.93,0,0,1,1.81-.56A2.75,2.75,0,0,1,229,97.9a3,3,0,0,1,.52,1.68h-1.09a1.79,1.79,0,0,0-1-1.66,1.73,1.73,0,0,0-.86-.2,1.7,1.7,0,0,0-1.53.8,2,2,0,0,0-.28,1,1.55,1.55,0,0,0,.5,1.21,4.39,4.39,0,0,0,1.41.61l.13,0a6.8,6.8,0,0,1,1.93.84,3,3,0,0,1,1,2.23,2.9,2.9,0,0,1-1.13,2.41,3.1,3.1,0,0,1-2,.68A3.06,3.06,0,0,1,224,106.3,3.4,3.4,0,0,1,223.34,104.45Z" transform="translate(0 -89.67)"></path><path class="cls-1" d="M231.14,94.23h1.05V96h-1.05Zm0,13.15V96.94h1.05v10.44Z" transform="translate(0 -89.67)"></path><path class="cls-1" d="M235.75,107.38V97.89h-2.39v-1h5.82v1h-2.39v9.49Z" transform="translate(0 -89.67)"></path><path class="cls-1" d="M240.35,107.38V96.94h5.71v1H241.4v3.74h4.5v1h-4.5v3.85h4.66v.95Z" transform="translate(0 -89.67)"></path><path class="cls-1" d="M247.16,104.45h1.11a2.63,2.63,0,0,0,.5,1.38,2.37,2.37,0,0,0,1.68.77,1.93,1.93,0,0,0,1.71-.87,2.14,2.14,0,0,0,.35-1.2,1.72,1.72,0,0,0-.72-1.5,5.9,5.9,0,0,0-1.61-.69,6.11,6.11,0,0,1-1.72-.72l-.23-.2a2.42,2.42,0,0,1-.73-1.85,2.68,2.68,0,0,1,1.08-2.25,3,3,0,0,1,1.81-.56,2.73,2.73,0,0,1,2.4,1.14,3,3,0,0,1,.53,1.68h-1.09a1.83,1.83,0,0,0-1.87-1.86,1.7,1.7,0,0,0-1.52.8,1.86,1.86,0,0,0-.28,1,1.55,1.55,0,0,0,.49,1.21,4.62,4.62,0,0,0,1.41.61l.13,0a6.88,6.88,0,0,1,1.94.84,3,3,0,0,1,1,2.23,2.9,2.9,0,0,1-1.13,2.41,3.09,3.09,0,0,1-2,.68,3,3,0,0,1-2.65-1.26A3.4,3.4,0,0,1,247.16,104.45Z" transform="translate(0 -89.67)"></path><path class="cls-1" d="M255,94.23h1V96h-1Zm0,13.15V96.94h1v10.44Z" transform="translate(0 -89.67)"></path><path class="cls-1" d="M103.24,124.33V113.89h2.15a6.79,6.79,0,0,1,2.5.32,3.37,3.37,0,0,1,.32.19,2.5,2.5,0,0,1,1.19,2.12v.15a2.1,2.1,0,0,1-1.16,2,2.94,2.94,0,0,1,1.19.77l.08.1a2.72,2.72,0,0,1,.51,1.71,2.85,2.85,0,0,1-1.08,2.35l-.27.18a5,5,0,0,1-2.64.58Zm1.94-6.41h.62c1,0,1.51-.26,1.64-.78a1.32,1.32,0,0,0,0-.3c0-.7-.5-1.06-1.5-1.06h-.79Zm0,4.56h1c1.09,0,1.72-.3,1.88-.89a1.7,1.7,0,0,0,0-.41c-.09-.89-.75-1.34-2-1.37h-.92Z" transform="translate(0 -89.67)"></path><path class="cls-1" d="M111.43,124.33V113.89h1.94v10.44Zm.09-11.37v-1.88h1.88V113Z" transform="translate(0 -89.67)"></path><path class="cls-1" d="M115.39,124.33V113.89h1.93v8.59h3.2v1.85Z" transform="translate(0 -89.67)"></path><path class="cls-1" d="M121.6,124.33V113.89h1.94v10.44Zm.09-11.37v-1.88h1.88V113Z" transform="translate(0 -89.67)"></path><path class="cls-1" d="M128.21,124.51l-.22.64a1.09,1.09,0,0,1,.41-.1,1.21,1.21,0,0,1,1.06.63,1.46,1.46,0,0,1,.22.8,1.27,1.27,0,0,1-.72,1.25,1.47,1.47,0,0,1-1.86-.53,1.4,1.4,0,0,1-.19-.53h.87a.58.58,0,0,0,.53.43.53.53,0,0,0,.51-.4.66.66,0,0,0,0-.25.56.56,0,0,0-.35-.58.45.45,0,0,0-.2,0c-.18,0-.35.12-.53.38l-.74-.37.47-1.4a3.15,3.15,0,0,1-2.32-1.62,3.49,3.49,0,0,1-.39-1.47h2a1.27,1.27,0,0,0,1.41,1.3,1.27,1.27,0,0,0,1.41-1.27,1.29,1.29,0,0,0-.48-1.06,5.26,5.26,0,0,0-1.14-.55l-.67-.26a3,3,0,0,1-2.13-2.29,3.31,3.31,0,0,1,0-.55,2.83,2.83,0,0,1,1.06-2.26,3.2,3.2,0,0,1,4.29.27l.13.14a3.12,3.12,0,0,1,.65,1.85h-2q-.08-1-.93-1.08l-.17,0a1,1,0,0,0-1,.61,1.33,1.33,0,0,0-.08.45,1.09,1.09,0,0,0,.58,1c.07,0,.46.2,1.15.46a6.58,6.58,0,0,1,1.63.82l.14.13a2.84,2.84,0,0,1,.93,2.19,3.21,3.21,0,0,1-1.14,2.56A3.45,3.45,0,0,1,128.21,124.51Z" transform="translate(0 -89.67)"></path><path class="cls-1" d="M132.9,124.33V113.89h1.94v10.44ZM133,113v-1.88h1.88V113Z" transform="translate(0 -89.67)"></path><path class="cls-1" d="M136.86,124.33V113.89h2.65l2.81,7.91,2.79-7.91h2.65v10.44h-1.93V116.5l-2.73,7.83h-1.58l-2.73-7.83v7.83Z" transform="translate(0 -89.67)"></path><path class="cls-1" d="M153.53,124.33V113.89h1.93v4.51l3.23-4.51H161L157.1,119l3.93,5.31h-2.34l-3.23-4.59v4.59Z" transform="translate(0 -89.67)"></path><path class="cls-1" d="M162.28,113.89h1.94v6.61a3.07,3.07,0,0,0,.25,1.44,1.72,1.72,0,0,0,1.34.71,1.47,1.47,0,0,0,1.29-.64.16.16,0,0,1,0-.07,3,3,0,0,0,.26-1.44v-6.61h1.93v6.61a4.41,4.41,0,0,1-.66,2.61l0,.06a3.29,3.29,0,0,1-2.21,1.3,4.26,4.26,0,0,1-.61,0,3.41,3.41,0,0,1-2.51-1,2.87,2.87,0,0,1-.44-.55,4.57,4.57,0,0,1-.57-2.46Z" transform="translate(0 -89.67)"></path><path class="cls-1" d="M171.32,124.33V113.89h1.94v8.59h3.19v1.85Z" transform="translate(0 -89.67)"></path><path class="cls-1" d="M177.37,113.89h1.93v6.61a3,3,0,0,0,.26,1.44,1.7,1.7,0,0,0,1.34.71,1.47,1.47,0,0,0,1.28-.64.18.18,0,0,1,0-.07,3,3,0,0,0,.25-1.44v-6.61h1.94v6.61a4.41,4.41,0,0,1-.67,2.61.21.21,0,0,0,0,.06,3.34,3.34,0,0,1-2.22,1.3,4.26,4.26,0,0,1-.61,0,3.44,3.44,0,0,1-2.51-1,2.87,2.87,0,0,1-.44-.55,4.67,4.67,0,0,1-.56-2.46Zm1.1-.93v-1.88h1.88V113Zm3,0v-1.88h1.87V113Z" transform="translate(0 -89.67)"></path><path class="cls-1" d="M186.41,124.33V113.89h2.14a6.79,6.79,0,0,1,2.5.32,2.59,2.59,0,0,1,.33.19,2.52,2.52,0,0,1,1.19,2.12v.15a2,2,0,0,1-.77,1.71,1.89,1.89,0,0,1-.39.26,2.9,2.9,0,0,1,1.18.77l.09.1a2.72,2.72,0,0,1,.51,1.71,2.84,2.84,0,0,1-1.09,2.35l-.27.18a5,5,0,0,1-2.64.58Zm1.93-6.41H189c1,0,1.52-.26,1.64-.78a1.32,1.32,0,0,0,0-.3c0-.7-.5-1.06-1.5-1.06h-.79Zm0,4.56h1c1.1,0,1.72-.3,1.88-.89a1.31,1.31,0,0,0,.06-.41c-.1-.89-.76-1.34-2-1.37h-.92Z" transform="translate(0 -89.67)"></path><path class="cls-1" d="M194.6,113.89h1.93v6.61a3,3,0,0,0,.26,1.44,1.72,1.72,0,0,0,1.34.71,1.49,1.49,0,0,0,1.29-.64.16.16,0,0,1,0-.07,3,3,0,0,0,.25-1.44v-6.61h1.94v6.61a4.34,4.34,0,0,1-.67,2.61l0,.06a3.32,3.32,0,0,1-2.22,1.3,4.12,4.12,0,0,1-.6,0,3.45,3.45,0,0,1-2.52-1,3.32,3.32,0,0,1-.44-.55,4.67,4.67,0,0,1-.56-2.46Zm1.1-.93v-1.88h1.88V113Zm3,0v-1.88h1.88V113Z" transform="translate(0 -89.67)"></path><path class="cls-1" d="M103.36,141.28V130.84h2.44a4.53,4.53,0,0,1,2.64.61,2.44,2.44,0,0,1,.93,2.1,2.26,2.26,0,0,1-1.16,2.16,2.52,2.52,0,0,1,1.73,2.15,2.77,2.77,0,0,1,0,.42,2.87,2.87,0,0,1-.89,2.25l-.29.2a6.29,6.29,0,0,1-2.85.55Zm1-5.95h1.27a4.72,4.72,0,0,0,1.84-.27,1.47,1.47,0,0,0,.8-1.49,1.69,1.69,0,0,0-.51-1.35l-.09-.07a4,4,0,0,0-2-.36H104.4Zm0,5h1.43a5.08,5.08,0,0,0,2.26-.38,1.56,1.56,0,0,0,.79-1.24,2.4,2.4,0,0,0,0-.37,1.81,1.81,0,0,0-1-1.77,6.1,6.1,0,0,0-2.29-.29H104.4Z" transform="translate(0 -89.67)"></path><path class="cls-1" d="M116.62,130.66a5.33,5.33,0,0,1,3.74,1.45l.47.47a5.25,5.25,0,0,1,1.3,3.49,5.16,5.16,0,0,1-1.46,3.63,5.33,5.33,0,0,1-3.5,1.73l-.55,0a5.38,5.38,0,0,1-3.8-1.48,5.23,5.23,0,0,1-1.71-3.58c0-.13,0-.26,0-.41a5,5,0,0,1,1.45-3.55,5.38,5.38,0,0,1,3.46-1.76Zm0,1a4.31,4.31,0,0,0-3.11,1.27,4.64,4.64,0,0,0-1.36,3.13,4.46,4.46,0,0,0,4.47,4.48,4.31,4.31,0,0,0,3.11-1.28,4.52,4.52,0,0,0,1.34-3.14,4.35,4.35,0,0,0-1.3-3.14l-.47-.41A4.3,4.3,0,0,0,116.62,131.62Z" transform="translate(0 -89.67)"></path><path class="cls-1" d="M127.4,136.46h7.09a5.46,5.46,0,0,1-1.37,3.24,5.2,5.2,0,0,1-4.07,1.76,5.63,5.63,0,0,1-4-1.5,5.09,5.09,0,0,1-1.71-3.6c0-.11,0-.22,0-.32a5.12,5.12,0,0,1,1.51-3.73,5.34,5.34,0,0,1,3.73-1.64h.3a5.54,5.54,0,0,1,3.7,1.27,4.15,4.15,0,0,1,1.24,1.69h-1.17a3.84,3.84,0,0,0-2.67-1.9,4.9,4.9,0,0,0-1-.1,4.45,4.45,0,0,0-3.29,1.32,4.28,4.28,0,0,0-1.27,3.13,4.22,4.22,0,0,0,1.34,3.16A4.5,4.5,0,0,0,129,140.5a4.23,4.23,0,0,0,3.12-1.24,3.92,3.92,0,0,0,1.1-1.85H127.4Zm-.64-8.25h.9a.91.91,0,0,0,.37.65,1.81,1.81,0,0,0,.88.23,1.77,1.77,0,0,0,.87-.23.91.91,0,0,0,.37-.65h.9a2,2,0,0,1-.56,1.19l-.13.1a2.44,2.44,0,0,1-1.45.41,1.9,1.9,0,0,1-2.09-1.46Q126.79,128.35,126.76,128.21Z" transform="translate(0 -89.67)"></path><path class="cls-1" d="M135.22,141.28l4.48-10.44h1.17l4.49,10.44h-1.14l-1.51-3.52h-4.86l-1.53,3.52Zm3-4.47h4.06l-2-4.78Z" transform="translate(0 -89.67)"></path><path class="cls-1" d="M145.76,141.28v-.95l5.12-8.54h-5v-.95h6.15v.95l-5.12,8.54h5.27v.95Z" transform="translate(0 -89.67)"></path><path class="cls-1" d="M153.37,128.13h1v1.78h-1Zm0,13.15V130.84h1v10.44Z" transform="translate(0 -89.67)"></path><path class="cls-1" d="M161.55,141.46l-.34.78a1.42,1.42,0,0,1,.48-.1,1,1,0,0,1,1,.66,1.51,1.51,0,0,1,.1.53,1.23,1.23,0,0,1-.69,1.2,1.37,1.37,0,0,1-.61.14,1.29,1.29,0,0,1-1.32-1l.67-.1a.61.61,0,0,0,.63.48.57.57,0,0,0,.63-.5c0-.05,0-.1,0-.15a.63.63,0,0,0-.42-.65l-.23,0a.85.85,0,0,0-.62.31l-.43-.26.6-1.28a5.75,5.75,0,0,1-2.33-.78l-.2-.13a5,5,0,0,1-2.33-3.84,6.08,6.08,0,0,1,0-.61,5.27,5.27,0,0,1,5.41-5.43,5.2,5.2,0,0,1,3.74,1.41,4.43,4.43,0,0,1,1.06,1.48h-1.17a4.19,4.19,0,0,0-1.1-1.2l0,0a4.3,4.3,0,0,0-2.45-.7,4.19,4.19,0,0,0-3.19,1.34,4.47,4.47,0,0,0,3.21,7.54,4.05,4.05,0,0,0,2.58-.86,7.13,7.13,0,0,0,1.05-1.1h1.15a5,5,0,0,1-4.22,2.89Z" transform="translate(0 -89.67)"></path><path class="cls-1" d="M168.05,128.13h1v1.78h-1Zm0,13.15V130.84h1v10.44Z" transform="translate(0 -89.67)"></path><path class="cls-1" d="M175.15,130.84h1v6.51a4,4,0,0,0,.48,2.16,2.16,2.16,0,0,0,1.66,1,2.31,2.31,0,0,0,.37,0,2.35,2.35,0,0,0,1.84-.76,2.31,2.31,0,0,0,.18-.23,4,4,0,0,0,.48-2.16v-6.51h1v6.51a4.82,4.82,0,0,1-.63,2.69l-.1.14a3.29,3.29,0,0,1-2.4,1.25,3,3,0,0,1-.43,0,3.48,3.48,0,0,1-2.57-1l-.24-.28a4.29,4.29,0,0,1-.73-2.52v-6.82Z" transform="translate(0 -89.67)"></path><path class="cls-1" d="M184.4,141.28V130.84h1.41l5.85,8.66v-8.66h1.05v10.44h-1.05l-6.21-9.18v9.18Z" transform="translate(0 -89.67)"></path><path class="cls-1" d="M194.85,141.28V130.84h1.05v10.44Z" transform="translate(0 -89.67)"></path><path class="cls-1" d="M201.41,141.28l-4.3-10.44h1.15l3.67,9.14,3.69-9.14h1.13l-4.33,10.44Z" transform="translate(0 -89.67)"></path><path class="cls-1" d="M208,141.28V130.84h5.71v.95H209v3.74h4.5v.95H209v3.85h4.66v.95Z" transform="translate(0 -89.67)"></path><path class="cls-1" d="M219.53,137.38l2.92,3.9h-1.3l-3.51-4.73a10.53,10.53,0,0,0,2.33-.19,2.33,2.33,0,0,0,.48-4.19,5.76,5.76,0,0,0-2.4-.38h-1.47v9.49h-1.05V130.84h2.59a6.36,6.36,0,0,1,2.92.51,3,3,0,0,1,1.57,2.85,2.81,2.81,0,0,1-2.08,3A4.77,4.77,0,0,1,219.53,137.38Z" transform="translate(0 -89.67)"></path><path class="cls-1" d="M223.34,138.35h1.12a2.68,2.68,0,0,0,.49,1.37,2.37,2.37,0,0,0,1.68.78,1.91,1.91,0,0,0,1.71-.87,2.08,2.08,0,0,0,.36-1.21,1.71,1.71,0,0,0-.72-1.49,5.9,5.9,0,0,0-1.61-.69,6.36,6.36,0,0,1-1.73-.72l-.22-.2a2.42,2.42,0,0,1-.74-1.85,2.66,2.66,0,0,1,1.09-2.25,2.93,2.93,0,0,1,1.81-.56,2.75,2.75,0,0,1,2.4,1.14,3,3,0,0,1,.52,1.68h-1.09a1.81,1.81,0,0,0-1-1.67,1.84,1.84,0,0,0-.86-.19,1.68,1.68,0,0,0-1.53.8,2,2,0,0,0-.28,1,1.55,1.55,0,0,0,.5,1.21,4.39,4.39,0,0,0,1.41.61l.13,0a6.8,6.8,0,0,1,1.93.84,3,3,0,0,1,1,2.23,2.91,2.91,0,0,1-1.13,2.41,3.1,3.1,0,0,1-2,.68A3.06,3.06,0,0,1,224,140.2,3.4,3.4,0,0,1,223.34,138.35Z" transform="translate(0 -89.67)"></path><path class="cls-1" d="M231.14,141.28V130.84h1.05v10.44Z" transform="translate(0 -89.67)"></path><path class="cls-1" d="M235.75,141.28v-9.49h-2.39v-.95h5.82v.95h-2.39v9.49Z" transform="translate(0 -89.67)"></path><path class="cls-1" d="M243.46,141.28v-3.49l-3.62-6.95H241l3,5.85,3-5.85h1.15l-3.65,6.95v3.49Z" transform="translate(0 -89.67)"></path><path class="cls-1" d="M103.24,158.23V147.79h1.94v10.44Z" transform="translate(0 -89.67)"></path><path class="cls-1" d="M108.27,158.23v-8.59h-1.93v-1.85h5.8v1.85h-1.93v8.59Z" transform="translate(0 -89.67)"></path><path class="cls-1" d="M124.58,155.32h2.28a4.94,4.94,0,0,1-2.53,2.6,5.56,5.56,0,0,1-6.06-1,5.25,5.25,0,0,1-1.71-3.55c0-.13,0-.27,0-.41a5.41,5.41,0,0,1,4.9-5.35h.47a5.36,5.36,0,0,1,3.46,1.2,5,5,0,0,1,1.31,1.62l.17.35H124.7a3.21,3.21,0,0,0-2.36-1.3H122a3.24,3.24,0,0,0-2.6,1.14,4.12,4.12,0,0,0-.86,2.38,3.42,3.42,0,0,0,1.13,2.6,3.32,3.32,0,0,0,2.37,1,3.25,3.25,0,0,0,2.23-.88Z" transform="translate(0 -89.67)"></path><path class="cls-1" d="M128.1,158.23V147.79H130v8.59h3.19v1.85Z" transform="translate(0 -89.67)"></path><path class="cls-1" d="M134.15,147.79h1.93v6.61a3,3,0,0,0,.26,1.44,1.7,1.7,0,0,0,1.34.71,1.49,1.49,0,0,0,1.28-.64.18.18,0,0,1,0-.07,3,3,0,0,0,.25-1.44v-6.61h1.94v6.61a4.41,4.41,0,0,1-.67,2.61.21.21,0,0,0,0,.06,3.34,3.34,0,0,1-2.22,1.3,4.26,4.26,0,0,1-.61,0,3.44,3.44,0,0,1-2.51-1,2.87,2.87,0,0,1-.44-.55,4.67,4.67,0,0,1-.56-2.46Z" transform="translate(0 -89.67)"></path><path class="cls-1" d="M143.19,158.23V147.79h2.14a6.79,6.79,0,0,1,2.5.32,2.59,2.59,0,0,1,.33.19,2.52,2.52,0,0,1,1.19,2.12v.15a2,2,0,0,1-.77,1.71,1.89,1.89,0,0,1-.39.26,2.9,2.9,0,0,1,1.18.77l.09.1a2.72,2.72,0,0,1,.51,1.71,2.83,2.83,0,0,1-1.09,2.34l-.27.19a5.07,5.07,0,0,1-2.64.58Zm1.93-6.42h.62c1,0,1.52-.25,1.64-.77a1.39,1.39,0,0,0,0-.3c0-.7-.5-1.06-1.5-1.06h-.79Zm0,4.57h1c1.1,0,1.72-.3,1.88-.89a1.31,1.31,0,0,0,.06-.41c-.1-.89-.76-1.34-2-1.37h-.92Z" transform="translate(0 -89.67)"></path></svg> 